<?xml version="1.0" encoding="utf-8" standalone="no"?>
<!DOCTYPE svg PUBLIC "-//W3C//DTD SVG 1.1//EN"
  "http://www.w3.org/Graphics/SVG/1.1/DTD/svg11.dtd">
<svg xmlns:xlink="http://www.w3.org/1999/xlink" width="720pt" height="432pt" viewBox="0 0 720 432" xmlns="http://www.w3.org/2000/svg" version="1.1">
 <metadata>
  <rdf:RDF xmlns:dc="http://purl.org/dc/elements/1.1/" xmlns:cc="http://creativecommons.org/ns#" xmlns:rdf="http://www.w3.org/1999/02/22-rdf-syntax-ns#">
   <cc:Work>
    <dc:type rdf:resource="http://purl.org/dc/dcmitype/StillImage"/>
    <dc:date>2023-06-02T19:49:51.092967</dc:date>
    <dc:format>image/svg+xml</dc:format>
    <dc:creator>
     <cc:Agent>
      <dc:title>Matplotlib v3.6.3, https://matplotlib.org/</dc:title>
     </cc:Agent>
    </dc:creator>
   </cc:Work>
  </rdf:RDF>
 </metadata>
 <defs>
  <style type="text/css">*{stroke-linejoin: round; stroke-linecap: butt}</style>
 </defs>
 <g id="figure_1">
  <g id="patch_1">
   <path d="M 0 432 
L 720 432 
L 720 0 
L 0 0 
z
" style="fill: #ffffff"/>
  </g>
  <g id="axes_1">
   <g id="patch_2">
    <path d="M 52.04 385.72 
L 709.2 385.72 
L 709.2 32.64 
L 52.04 32.64 
z
" style="fill: #ffffff"/>
   </g>
   <g id="matplotlib.axis_1">
    <g id="xtick_1">
     <g id="line2d_1">
      <path d="M 81.910909 385.72 
L 81.910909 32.64 
" clip-path="url(#p2cba58a881)" style="fill: none; stroke: #b0b0b0; stroke-width: 0.8; stroke-linecap: square"/>
     </g>
     <g id="line2d_2">
      <defs>
       <path id="ma3543d883e" d="M 0 0 
L 0 3.5 
" style="stroke: #000000; stroke-width: 0.8"/>
      </defs>
      <g>
       <use xlink:href="#ma3543d883e" x="81.910909" y="385.72" style="stroke: #000000; stroke-width: 0.8"/>
      </g>
     </g>
     <g id="text_1">
      <!-- 0.0 -->
      <g transform="translate(73.959347 400.318437) scale(0.1 -0.1)">
       <defs>
        <path id="DejaVuSans-30" d="M 2034 4250 
Q 1547 4250 1301 3770 
Q 1056 3291 1056 2328 
Q 1056 1369 1301 889 
Q 1547 409 2034 409 
Q 2525 409 2770 889 
Q 3016 1369 3016 2328 
Q 3016 3291 2770 3770 
Q 2525 4250 2034 4250 
z
M 2034 4750 
Q 2819 4750 3233 4129 
Q 3647 3509 3647 2328 
Q 3647 1150 3233 529 
Q 2819 -91 2034 -91 
Q 1250 -91 836 529 
Q 422 1150 422 2328 
Q 422 3509 836 4129 
Q 1250 4750 2034 4750 
z
" transform="scale(0.015625)"/>
        <path id="DejaVuSans-2e" d="M 684 794 
L 1344 794 
L 1344 0 
L 684 0 
L 684 794 
z
" transform="scale(0.015625)"/>
       </defs>
       <use xlink:href="#DejaVuSans-30"/>
       <use xlink:href="#DejaVuSans-2e" x="63.623047"/>
       <use xlink:href="#DejaVuSans-30" x="95.410156"/>
      </g>
     </g>
    </g>
    <g id="xtick_2">
     <g id="line2d_3">
      <path d="M 201.394545 385.72 
L 201.394545 32.64 
" clip-path="url(#p2cba58a881)" style="fill: none; stroke: #b0b0b0; stroke-width: 0.8; stroke-linecap: square"/>
     </g>
     <g id="line2d_4">
      <g>
       <use xlink:href="#ma3543d883e" x="201.394545" y="385.72" style="stroke: #000000; stroke-width: 0.8"/>
      </g>
     </g>
     <g id="text_2">
      <!-- 0.2 -->
      <g transform="translate(193.442983 400.318437) scale(0.1 -0.1)">
       <defs>
        <path id="DejaVuSans-32" d="M 1228 531 
L 3431 531 
L 3431 0 
L 469 0 
L 469 531 
Q 828 903 1448 1529 
Q 2069 2156 2228 2338 
Q 2531 2678 2651 2914 
Q 2772 3150 2772 3378 
Q 2772 3750 2511 3984 
Q 2250 4219 1831 4219 
Q 1534 4219 1204 4116 
Q 875 4013 500 3803 
L 500 4441 
Q 881 4594 1212 4672 
Q 1544 4750 1819 4750 
Q 2544 4750 2975 4387 
Q 3406 4025 3406 3419 
Q 3406 3131 3298 2873 
Q 3191 2616 2906 2266 
Q 2828 2175 2409 1742 
Q 1991 1309 1228 531 
z
" transform="scale(0.015625)"/>
       </defs>
       <use xlink:href="#DejaVuSans-30"/>
       <use xlink:href="#DejaVuSans-2e" x="63.623047"/>
       <use xlink:href="#DejaVuSans-32" x="95.410156"/>
      </g>
     </g>
    </g>
    <g id="xtick_3">
     <g id="line2d_5">
      <path d="M 320.878182 385.72 
L 320.878182 32.64 
" clip-path="url(#p2cba58a881)" style="fill: none; stroke: #b0b0b0; stroke-width: 0.8; stroke-linecap: square"/>
     </g>
     <g id="line2d_6">
      <g>
       <use xlink:href="#ma3543d883e" x="320.878182" y="385.72" style="stroke: #000000; stroke-width: 0.8"/>
      </g>
     </g>
     <g id="text_3">
      <!-- 0.4 -->
      <g transform="translate(312.926619 400.318437) scale(0.1 -0.1)">
       <defs>
        <path id="DejaVuSans-34" d="M 2419 4116 
L 825 1625 
L 2419 1625 
L 2419 4116 
z
M 2253 4666 
L 3047 4666 
L 3047 1625 
L 3713 1625 
L 3713 1100 
L 3047 1100 
L 3047 0 
L 2419 0 
L 2419 1100 
L 313 1100 
L 313 1709 
L 2253 4666 
z
" transform="scale(0.015625)"/>
       </defs>
       <use xlink:href="#DejaVuSans-30"/>
       <use xlink:href="#DejaVuSans-2e" x="63.623047"/>
       <use xlink:href="#DejaVuSans-34" x="95.410156"/>
      </g>
     </g>
    </g>
    <g id="xtick_4">
     <g id="line2d_7">
      <path d="M 440.361818 385.72 
L 440.361818 32.64 
" clip-path="url(#p2cba58a881)" style="fill: none; stroke: #b0b0b0; stroke-width: 0.8; stroke-linecap: square"/>
     </g>
     <g id="line2d_8">
      <g>
       <use xlink:href="#ma3543d883e" x="440.361818" y="385.72" style="stroke: #000000; stroke-width: 0.8"/>
      </g>
     </g>
     <g id="text_4">
      <!-- 0.6 -->
      <g transform="translate(432.410256 400.318437) scale(0.1 -0.1)">
       <defs>
        <path id="DejaVuSans-36" d="M 2113 2584 
Q 1688 2584 1439 2293 
Q 1191 2003 1191 1497 
Q 1191 994 1439 701 
Q 1688 409 2113 409 
Q 2538 409 2786 701 
Q 3034 994 3034 1497 
Q 3034 2003 2786 2293 
Q 2538 2584 2113 2584 
z
M 3366 4563 
L 3366 3988 
Q 3128 4100 2886 4159 
Q 2644 4219 2406 4219 
Q 1781 4219 1451 3797 
Q 1122 3375 1075 2522 
Q 1259 2794 1537 2939 
Q 1816 3084 2150 3084 
Q 2853 3084 3261 2657 
Q 3669 2231 3669 1497 
Q 3669 778 3244 343 
Q 2819 -91 2113 -91 
Q 1303 -91 875 529 
Q 447 1150 447 2328 
Q 447 3434 972 4092 
Q 1497 4750 2381 4750 
Q 2619 4750 2861 4703 
Q 3103 4656 3366 4563 
z
" transform="scale(0.015625)"/>
       </defs>
       <use xlink:href="#DejaVuSans-30"/>
       <use xlink:href="#DejaVuSans-2e" x="63.623047"/>
       <use xlink:href="#DejaVuSans-36" x="95.410156"/>
      </g>
     </g>
    </g>
    <g id="xtick_5">
     <g id="line2d_9">
      <path d="M 559.845455 385.72 
L 559.845455 32.64 
" clip-path="url(#p2cba58a881)" style="fill: none; stroke: #b0b0b0; stroke-width: 0.8; stroke-linecap: square"/>
     </g>
     <g id="line2d_10">
      <g>
       <use xlink:href="#ma3543d883e" x="559.845455" y="385.72" style="stroke: #000000; stroke-width: 0.8"/>
      </g>
     </g>
     <g id="text_5">
      <!-- 0.8 -->
      <g transform="translate(551.893892 400.318437) scale(0.1 -0.1)">
       <defs>
        <path id="DejaVuSans-38" d="M 2034 2216 
Q 1584 2216 1326 1975 
Q 1069 1734 1069 1313 
Q 1069 891 1326 650 
Q 1584 409 2034 409 
Q 2484 409 2743 651 
Q 3003 894 3003 1313 
Q 3003 1734 2745 1975 
Q 2488 2216 2034 2216 
z
M 1403 2484 
Q 997 2584 770 2862 
Q 544 3141 544 3541 
Q 544 4100 942 4425 
Q 1341 4750 2034 4750 
Q 2731 4750 3128 4425 
Q 3525 4100 3525 3541 
Q 3525 3141 3298 2862 
Q 3072 2584 2669 2484 
Q 3125 2378 3379 2068 
Q 3634 1759 3634 1313 
Q 3634 634 3220 271 
Q 2806 -91 2034 -91 
Q 1263 -91 848 271 
Q 434 634 434 1313 
Q 434 1759 690 2068 
Q 947 2378 1403 2484 
z
M 1172 3481 
Q 1172 3119 1398 2916 
Q 1625 2713 2034 2713 
Q 2441 2713 2670 2916 
Q 2900 3119 2900 3481 
Q 2900 3844 2670 4047 
Q 2441 4250 2034 4250 
Q 1625 4250 1398 4047 
Q 1172 3844 1172 3481 
z
" transform="scale(0.015625)"/>
       </defs>
       <use xlink:href="#DejaVuSans-30"/>
       <use xlink:href="#DejaVuSans-2e" x="63.623047"/>
       <use xlink:href="#DejaVuSans-38" x="95.410156"/>
      </g>
     </g>
    </g>
    <g id="xtick_6">
     <g id="line2d_11">
      <path d="M 679.329091 385.72 
L 679.329091 32.64 
" clip-path="url(#p2cba58a881)" style="fill: none; stroke: #b0b0b0; stroke-width: 0.8; stroke-linecap: square"/>
     </g>
     <g id="line2d_12">
      <g>
       <use xlink:href="#ma3543d883e" x="679.329091" y="385.72" style="stroke: #000000; stroke-width: 0.8"/>
      </g>
     </g>
     <g id="text_6">
      <!-- 1.0 -->
      <g transform="translate(671.377528 400.318437) scale(0.1 -0.1)">
       <defs>
        <path id="DejaVuSans-31" d="M 794 531 
L 1825 531 
L 1825 4091 
L 703 3866 
L 703 4441 
L 1819 4666 
L 2450 4666 
L 2450 531 
L 3481 531 
L 3481 0 
L 794 0 
L 794 531 
z
" transform="scale(0.015625)"/>
       </defs>
       <use xlink:href="#DejaVuSans-31"/>
       <use xlink:href="#DejaVuSans-2e" x="63.623047"/>
       <use xlink:href="#DejaVuSans-30" x="95.410156"/>
      </g>
     </g>
    </g>
    <g id="text_7">
     <!-- False Positive Rate -->
     <g transform="translate(310.920391 417.795781) scale(0.15 -0.15)">
      <defs>
       <path id="DejaVuSans-46" d="M 628 4666 
L 3309 4666 
L 3309 4134 
L 1259 4134 
L 1259 2759 
L 3109 2759 
L 3109 2228 
L 1259 2228 
L 1259 0 
L 628 0 
L 628 4666 
z
" transform="scale(0.015625)"/>
       <path id="DejaVuSans-61" d="M 2194 1759 
Q 1497 1759 1228 1600 
Q 959 1441 959 1056 
Q 959 750 1161 570 
Q 1363 391 1709 391 
Q 2188 391 2477 730 
Q 2766 1069 2766 1631 
L 2766 1759 
L 2194 1759 
z
M 3341 1997 
L 3341 0 
L 2766 0 
L 2766 531 
Q 2569 213 2275 61 
Q 1981 -91 1556 -91 
Q 1019 -91 701 211 
Q 384 513 384 1019 
Q 384 1609 779 1909 
Q 1175 2209 1959 2209 
L 2766 2209 
L 2766 2266 
Q 2766 2663 2505 2880 
Q 2244 3097 1772 3097 
Q 1472 3097 1187 3025 
Q 903 2953 641 2809 
L 641 3341 
Q 956 3463 1253 3523 
Q 1550 3584 1831 3584 
Q 2591 3584 2966 3190 
Q 3341 2797 3341 1997 
z
" transform="scale(0.015625)"/>
       <path id="DejaVuSans-6c" d="M 603 4863 
L 1178 4863 
L 1178 0 
L 603 0 
L 603 4863 
z
" transform="scale(0.015625)"/>
       <path id="DejaVuSans-73" d="M 2834 3397 
L 2834 2853 
Q 2591 2978 2328 3040 
Q 2066 3103 1784 3103 
Q 1356 3103 1142 2972 
Q 928 2841 928 2578 
Q 928 2378 1081 2264 
Q 1234 2150 1697 2047 
L 1894 2003 
Q 2506 1872 2764 1633 
Q 3022 1394 3022 966 
Q 3022 478 2636 193 
Q 2250 -91 1575 -91 
Q 1294 -91 989 -36 
Q 684 19 347 128 
L 347 722 
Q 666 556 975 473 
Q 1284 391 1588 391 
Q 1994 391 2212 530 
Q 2431 669 2431 922 
Q 2431 1156 2273 1281 
Q 2116 1406 1581 1522 
L 1381 1569 
Q 847 1681 609 1914 
Q 372 2147 372 2553 
Q 372 3047 722 3315 
Q 1072 3584 1716 3584 
Q 2034 3584 2315 3537 
Q 2597 3491 2834 3397 
z
" transform="scale(0.015625)"/>
       <path id="DejaVuSans-65" d="M 3597 1894 
L 3597 1613 
L 953 1613 
Q 991 1019 1311 708 
Q 1631 397 2203 397 
Q 2534 397 2845 478 
Q 3156 559 3463 722 
L 3463 178 
Q 3153 47 2828 -22 
Q 2503 -91 2169 -91 
Q 1331 -91 842 396 
Q 353 884 353 1716 
Q 353 2575 817 3079 
Q 1281 3584 2069 3584 
Q 2775 3584 3186 3129 
Q 3597 2675 3597 1894 
z
M 3022 2063 
Q 3016 2534 2758 2815 
Q 2500 3097 2075 3097 
Q 1594 3097 1305 2825 
Q 1016 2553 972 2059 
L 3022 2063 
z
" transform="scale(0.015625)"/>
       <path id="DejaVuSans-20" transform="scale(0.015625)"/>
       <path id="DejaVuSans-50" d="M 1259 4147 
L 1259 2394 
L 2053 2394 
Q 2494 2394 2734 2622 
Q 2975 2850 2975 3272 
Q 2975 3691 2734 3919 
Q 2494 4147 2053 4147 
L 1259 4147 
z
M 628 4666 
L 2053 4666 
Q 2838 4666 3239 4311 
Q 3641 3956 3641 3272 
Q 3641 2581 3239 2228 
Q 2838 1875 2053 1875 
L 1259 1875 
L 1259 0 
L 628 0 
L 628 4666 
z
" transform="scale(0.015625)"/>
       <path id="DejaVuSans-6f" d="M 1959 3097 
Q 1497 3097 1228 2736 
Q 959 2375 959 1747 
Q 959 1119 1226 758 
Q 1494 397 1959 397 
Q 2419 397 2687 759 
Q 2956 1122 2956 1747 
Q 2956 2369 2687 2733 
Q 2419 3097 1959 3097 
z
M 1959 3584 
Q 2709 3584 3137 3096 
Q 3566 2609 3566 1747 
Q 3566 888 3137 398 
Q 2709 -91 1959 -91 
Q 1206 -91 779 398 
Q 353 888 353 1747 
Q 353 2609 779 3096 
Q 1206 3584 1959 3584 
z
" transform="scale(0.015625)"/>
       <path id="DejaVuSans-69" d="M 603 3500 
L 1178 3500 
L 1178 0 
L 603 0 
L 603 3500 
z
M 603 4863 
L 1178 4863 
L 1178 4134 
L 603 4134 
L 603 4863 
z
" transform="scale(0.015625)"/>
       <path id="DejaVuSans-74" d="M 1172 4494 
L 1172 3500 
L 2356 3500 
L 2356 3053 
L 1172 3053 
L 1172 1153 
Q 1172 725 1289 603 
Q 1406 481 1766 481 
L 2356 481 
L 2356 0 
L 1766 0 
Q 1100 0 847 248 
Q 594 497 594 1153 
L 594 3053 
L 172 3053 
L 172 3500 
L 594 3500 
L 594 4494 
L 1172 4494 
z
" transform="scale(0.015625)"/>
       <path id="DejaVuSans-76" d="M 191 3500 
L 800 3500 
L 1894 563 
L 2988 3500 
L 3597 3500 
L 2284 0 
L 1503 0 
L 191 3500 
z
" transform="scale(0.015625)"/>
       <path id="DejaVuSans-52" d="M 2841 2188 
Q 3044 2119 3236 1894 
Q 3428 1669 3622 1275 
L 4263 0 
L 3584 0 
L 2988 1197 
Q 2756 1666 2539 1819 
Q 2322 1972 1947 1972 
L 1259 1972 
L 1259 0 
L 628 0 
L 628 4666 
L 2053 4666 
Q 2853 4666 3247 4331 
Q 3641 3997 3641 3322 
Q 3641 2881 3436 2590 
Q 3231 2300 2841 2188 
z
M 1259 4147 
L 1259 2491 
L 2053 2491 
Q 2509 2491 2742 2702 
Q 2975 2913 2975 3322 
Q 2975 3731 2742 3939 
Q 2509 4147 2053 4147 
L 1259 4147 
z
" transform="scale(0.015625)"/>
      </defs>
      <use xlink:href="#DejaVuSans-46"/>
      <use xlink:href="#DejaVuSans-61" x="48.394531"/>
      <use xlink:href="#DejaVuSans-6c" x="109.673828"/>
      <use xlink:href="#DejaVuSans-73" x="137.457031"/>
      <use xlink:href="#DejaVuSans-65" x="189.556641"/>
      <use xlink:href="#DejaVuSans-20" x="251.080078"/>
      <use xlink:href="#DejaVuSans-50" x="282.867188"/>
      <use xlink:href="#DejaVuSans-6f" x="339.544922"/>
      <use xlink:href="#DejaVuSans-73" x="400.726562"/>
      <use xlink:href="#DejaVuSans-69" x="452.826172"/>
      <use xlink:href="#DejaVuSans-74" x="480.609375"/>
      <use xlink:href="#DejaVuSans-69" x="519.818359"/>
      <use xlink:href="#DejaVuSans-76" x="547.601562"/>
      <use xlink:href="#DejaVuSans-65" x="606.78125"/>
      <use xlink:href="#DejaVuSans-20" x="668.304688"/>
      <use xlink:href="#DejaVuSans-52" x="700.091797"/>
      <use xlink:href="#DejaVuSans-61" x="767.324219"/>
      <use xlink:href="#DejaVuSans-74" x="828.603516"/>
      <use xlink:href="#DejaVuSans-65" x="867.8125"/>
     </g>
    </g>
   </g>
   <g id="matplotlib.axis_2">
    <g id="ytick_1">
     <g id="line2d_13">
      <path d="M 52.04 369.670909 
L 709.2 369.670909 
" clip-path="url(#p2cba58a881)" style="fill: none; stroke: #b0b0b0; stroke-width: 0.8; stroke-linecap: square"/>
     </g>
     <g id="line2d_14">
      <defs>
       <path id="m3781c58bf8" d="M 0 0 
L -3.5 0 
" style="stroke: #000000; stroke-width: 0.8"/>
      </defs>
      <g>
       <use xlink:href="#m3781c58bf8" x="52.04" y="369.670909" style="stroke: #000000; stroke-width: 0.8"/>
      </g>
     </g>
     <g id="text_8">
      <!-- 0.0 -->
      <g transform="translate(29.136875 373.470128) scale(0.1 -0.1)">
       <use xlink:href="#DejaVuSans-30"/>
       <use xlink:href="#DejaVuSans-2e" x="63.623047"/>
       <use xlink:href="#DejaVuSans-30" x="95.410156"/>
      </g>
     </g>
    </g>
    <g id="ytick_2">
     <g id="line2d_15">
      <path d="M 52.04 305.474545 
L 709.2 305.474545 
" clip-path="url(#p2cba58a881)" style="fill: none; stroke: #b0b0b0; stroke-width: 0.8; stroke-linecap: square"/>
     </g>
     <g id="line2d_16">
      <g>
       <use xlink:href="#m3781c58bf8" x="52.04" y="305.474545" style="stroke: #000000; stroke-width: 0.8"/>
      </g>
     </g>
     <g id="text_9">
      <!-- 0.2 -->
      <g transform="translate(29.136875 309.273764) scale(0.1 -0.1)">
       <use xlink:href="#DejaVuSans-30"/>
       <use xlink:href="#DejaVuSans-2e" x="63.623047"/>
       <use xlink:href="#DejaVuSans-32" x="95.410156"/>
      </g>
     </g>
    </g>
    <g id="ytick_3">
     <g id="line2d_17">
      <path d="M 52.04 241.278182 
L 709.2 241.278182 
" clip-path="url(#p2cba58a881)" style="fill: none; stroke: #b0b0b0; stroke-width: 0.8; stroke-linecap: square"/>
     </g>
     <g id="line2d_18">
      <g>
       <use xlink:href="#m3781c58bf8" x="52.04" y="241.278182" style="stroke: #000000; stroke-width: 0.8"/>
      </g>
     </g>
     <g id="text_10">
      <!-- 0.4 -->
      <g transform="translate(29.136875 245.077401) scale(0.1 -0.1)">
       <use xlink:href="#DejaVuSans-30"/>
       <use xlink:href="#DejaVuSans-2e" x="63.623047"/>
       <use xlink:href="#DejaVuSans-34" x="95.410156"/>
      </g>
     </g>
    </g>
    <g id="ytick_4">
     <g id="line2d_19">
      <path d="M 52.04 177.081818 
L 709.2 177.081818 
" clip-path="url(#p2cba58a881)" style="fill: none; stroke: #b0b0b0; stroke-width: 0.8; stroke-linecap: square"/>
     </g>
     <g id="line2d_20">
      <g>
       <use xlink:href="#m3781c58bf8" x="52.04" y="177.081818" style="stroke: #000000; stroke-width: 0.8"/>
      </g>
     </g>
     <g id="text_11">
      <!-- 0.6 -->
      <g transform="translate(29.136875 180.881037) scale(0.1 -0.1)">
       <use xlink:href="#DejaVuSans-30"/>
       <use xlink:href="#DejaVuSans-2e" x="63.623047"/>
       <use xlink:href="#DejaVuSans-36" x="95.410156"/>
      </g>
     </g>
    </g>
    <g id="ytick_5">
     <g id="line2d_21">
      <path d="M 52.04 112.885455 
L 709.2 112.885455 
" clip-path="url(#p2cba58a881)" style="fill: none; stroke: #b0b0b0; stroke-width: 0.8; stroke-linecap: square"/>
     </g>
     <g id="line2d_22">
      <g>
       <use xlink:href="#m3781c58bf8" x="52.04" y="112.885455" style="stroke: #000000; stroke-width: 0.8"/>
      </g>
     </g>
     <g id="text_12">
      <!-- 0.8 -->
      <g transform="translate(29.136875 116.684673) scale(0.1 -0.1)">
       <use xlink:href="#DejaVuSans-30"/>
       <use xlink:href="#DejaVuSans-2e" x="63.623047"/>
       <use xlink:href="#DejaVuSans-38" x="95.410156"/>
      </g>
     </g>
    </g>
    <g id="ytick_6">
     <g id="line2d_23">
      <path d="M 52.04 48.689091 
L 709.2 48.689091 
" clip-path="url(#p2cba58a881)" style="fill: none; stroke: #b0b0b0; stroke-width: 0.8; stroke-linecap: square"/>
     </g>
     <g id="line2d_24">
      <g>
       <use xlink:href="#m3781c58bf8" x="52.04" y="48.689091" style="stroke: #000000; stroke-width: 0.8"/>
      </g>
     </g>
     <g id="text_13">
      <!-- 1.0 -->
      <g transform="translate(29.136875 52.48831) scale(0.1 -0.1)">
       <use xlink:href="#DejaVuSans-31"/>
       <use xlink:href="#DejaVuSans-2e" x="63.623047"/>
       <use xlink:href="#DejaVuSans-30" x="95.410156"/>
      </g>
     </g>
    </g>
    <g id="text_14">
     <!-- True Positive Rate -->
     <g transform="translate(22.017344 275.974531) rotate(-90) scale(0.15 -0.15)">
      <defs>
       <path id="DejaVuSans-54" d="M -19 4666 
L 3928 4666 
L 3928 4134 
L 2272 4134 
L 2272 0 
L 1638 0 
L 1638 4134 
L -19 4134 
L -19 4666 
z
" transform="scale(0.015625)"/>
       <path id="DejaVuSans-72" d="M 2631 2963 
Q 2534 3019 2420 3045 
Q 2306 3072 2169 3072 
Q 1681 3072 1420 2755 
Q 1159 2438 1159 1844 
L 1159 0 
L 581 0 
L 581 3500 
L 1159 3500 
L 1159 2956 
Q 1341 3275 1631 3429 
Q 1922 3584 2338 3584 
Q 2397 3584 2469 3576 
Q 2541 3569 2628 3553 
L 2631 2963 
z
" transform="scale(0.015625)"/>
       <path id="DejaVuSans-75" d="M 544 1381 
L 544 3500 
L 1119 3500 
L 1119 1403 
Q 1119 906 1312 657 
Q 1506 409 1894 409 
Q 2359 409 2629 706 
Q 2900 1003 2900 1516 
L 2900 3500 
L 3475 3500 
L 3475 0 
L 2900 0 
L 2900 538 
Q 2691 219 2414 64 
Q 2138 -91 1772 -91 
Q 1169 -91 856 284 
Q 544 659 544 1381 
z
M 1991 3584 
L 1991 3584 
z
" transform="scale(0.015625)"/>
      </defs>
      <use xlink:href="#DejaVuSans-54"/>
      <use xlink:href="#DejaVuSans-72" x="46.333984"/>
      <use xlink:href="#DejaVuSans-75" x="87.447266"/>
      <use xlink:href="#DejaVuSans-65" x="150.826172"/>
      <use xlink:href="#DejaVuSans-20" x="212.349609"/>
      <use xlink:href="#DejaVuSans-50" x="244.136719"/>
      <use xlink:href="#DejaVuSans-6f" x="300.814453"/>
      <use xlink:href="#DejaVuSans-73" x="361.996094"/>
      <use xlink:href="#DejaVuSans-69" x="414.095703"/>
      <use xlink:href="#DejaVuSans-74" x="441.878906"/>
      <use xlink:href="#DejaVuSans-69" x="481.087891"/>
      <use xlink:href="#DejaVuSans-76" x="508.871094"/>
      <use xlink:href="#DejaVuSans-65" x="568.050781"/>
      <use xlink:href="#DejaVuSans-20" x="629.574219"/>
      <use xlink:href="#DejaVuSans-52" x="661.361328"/>
      <use xlink:href="#DejaVuSans-61" x="728.59375"/>
      <use xlink:href="#DejaVuSans-74" x="789.873047"/>
      <use xlink:href="#DejaVuSans-65" x="829.082031"/>
     </g>
    </g>
   </g>
   <g id="line2d_25">
    <path d="M 81.910909 369.670909 
L 81.910909 355.341364 
L 82.574707 354.768182 
L 82.574707 353.621818 
L 83.238505 353.621818 
L 83.238505 353.048636 
L 83.902303 351.902273 
L 83.902303 350.755909 
L 84.566101 350.755909 
L 84.566101 341.011818 
L 85.229899 341.011818 
L 85.229899 339.292273 
L 85.893697 339.292273 
L 85.893697 328.975 
L 86.557495 328.975 
L 86.557495 323.816364 
L 87.221293 323.816364 
L 87.221293 317.511364 
L 87.885091 317.511364 
L 87.885091 313.499091 
L 89.212687 313.499091 
L 89.212687 307.194091 
L 89.876485 307.194091 
L 89.876485 304.901364 
L 90.540283 304.901364 
L 90.540283 302.608636 
L 91.204081 302.608636 
L 91.204081 297.45 
L 91.867879 297.45 
L 91.867879 292.864545 
L 92.531677 292.864545 
L 92.531677 286.559545 
L 93.195475 286.559545 
L 93.195475 284.266818 
L 93.859273 284.266818 
L 93.859273 283.120455 
L 94.523071 283.120455 
L 94.523071 279.681364 
L 95.850667 279.681364 
L 95.850667 275.669091 
L 97.178263 275.669091 
L 97.178263 275.095909 
L 97.842061 275.095909 
L 97.842061 271.656818 
L 98.505859 271.656818 
L 98.505859 261.912727 
L 99.833455 261.912727 
L 99.833455 256.754091 
L 101.161051 256.754091 
L 102.488646 255.607727 
L 102.488646 251.595455 
L 103.152444 250.449091 
L 103.152444 245.290455 
L 103.816242 245.290455 
L 103.816242 243.570909 
L 104.48004 243.570909 
L 104.48004 242.997727 
L 105.143838 242.997727 
L 105.143838 242.424545 
L 105.807636 242.424545 
L 105.807636 240.131818 
L 107.135232 240.131818 
L 107.135232 238.985455 
L 108.462828 238.985455 
L 108.462828 237.839091 
L 111.11802 237.839091 
L 111.11802 237.265909 
L 111.781818 237.265909 
L 111.781818 234.4 
L 112.445616 234.4 
L 112.445616 233.253636 
L 113.773212 233.253636 
L 113.773212 228.095 
L 114.43701 228.095 
L 115.100808 227.521818 
L 115.100808 224.082727 
L 115.764606 223.509545 
L 115.764606 222.936364 
L 117.756 220.643636 
L 117.756 218.924091 
L 118.419798 218.924091 
L 118.419798 216.058182 
L 119.083596 216.058182 
L 119.083596 214.338636 
L 119.747394 214.338636 
L 119.747394 213.192273 
L 120.411192 212.619091 
L 121.738788 212.619091 
L 121.738788 211.472727 
L 122.402586 211.472727 
L 122.402586 210.899545 
L 123.066384 210.899545 
L 123.066384 207.460455 
L 125.057778 207.460455 
L 125.057778 205.740909 
L 128.376768 205.167727 
L 128.376768 204.594545 
L 129.040566 204.594545 
L 129.040566 202.875 
L 130.368162 202.875 
L 130.368162 202.301818 
L 133.687152 202.301818 
L 133.687152 201.728636 
L 134.350949 201.728636 
L 135.014747 201.155455 
L 135.014747 197.143182 
L 135.678545 197.143182 
L 135.678545 195.423636 
L 137.006141 195.423636 
L 137.006141 193.130909 
L 137.669939 193.130909 
L 137.669939 192.557727 
L 138.997535 191.984545 
L 138.997535 191.411364 
L 139.661333 191.411364 
L 141.652727 190.838182 
L 142.316525 190.265 
L 142.316525 189.691818 
L 142.980323 189.691818 
L 142.980323 188.545455 
L 143.644121 188.545455 
L 143.644121 187.972273 
L 144.307919 187.972273 
L 144.307919 187.399091 
L 144.971717 187.399091 
L 144.971717 186.825909 
L 145.635515 186.825909 
L 145.635515 186.252727 
L 146.963111 186.252727 
L 146.963111 185.679545 
L 148.954505 185.106364 
L 150.282101 185.106364 
L 150.282101 183.386818 
L 150.945899 181.667273 
L 150.945899 181.094091 
L 151.609697 181.094091 
L 151.609697 177.081818 
L 154.928687 177.081818 
L 154.928687 175.362273 
L 155.592485 175.362273 
L 155.592485 173.642727 
L 157.583879 173.642727 
L 158.911475 173.069545 
L 160.902869 173.069545 
L 160.902869 172.496364 
L 161.566667 172.496364 
L 161.566667 170.776818 
L 162.230465 170.776818 
L 162.230465 169.630455 
L 163.558061 169.630455 
L 163.558061 169.057273 
L 164.221859 169.057273 
L 164.221859 168.484091 
L 164.885657 168.484091 
L 164.885657 167.910909 
L 165.549455 167.910909 
L 165.549455 163.325455 
L 166.213253 163.325455 
L 167.540848 162.752273 
L 168.204646 162.752273 
L 168.204646 161.605909 
L 168.868444 161.032727 
L 168.868444 159.886364 
L 169.532242 159.886364 
L 169.532242 159.313182 
L 170.19604 159.313182 
L 170.859838 158.74 
L 172.187434 158.74 
L 172.187434 158.166818 
L 172.851232 158.166818 
L 173.51503 157.593636 
L 174.178828 157.593636 
L 174.178828 157.020455 
L 174.842626 157.020455 
L 174.842626 156.447273 
L 176.170222 156.447273 
L 176.170222 154.154545 
L 179.489212 154.154545 
L 179.489212 152.435 
L 180.816808 152.435 
L 180.816808 150.715455 
L 181.480606 148.995909 
L 184.135798 148.995909 
L 184.135798 143.837273 
L 185.463394 143.837273 
L 186.127192 143.264091 
L 186.127192 140.971364 
L 186.79099 140.971364 
L 186.79099 139.825 
L 187.454788 139.825 
L 188.118586 139.251818 
L 188.118586 138.678636 
L 190.10998 138.678636 
L 190.10998 136.959091 
L 190.773778 136.959091 
L 190.773778 136.385909 
L 192.765172 136.385909 
L 192.765172 135.812727 
L 196.084162 135.812727 
L 197.411758 135.239545 
L 198.075556 135.239545 
L 198.075556 134.093182 
L 199.403152 134.093182 
L 200.066949 132.946818 
L 200.066949 131.800455 
L 201.394545 131.800455 
L 201.394545 131.227273 
L 202.058343 131.227273 
L 202.058343 130.654091 
L 203.385939 130.654091 
L 203.385939 130.080909 
L 207.368727 130.080909 
L 208.032525 129.507727 
L 210.023919 129.507727 
L 210.023919 128.361364 
L 212.015313 128.361364 
L 212.015313 127.788182 
L 215.334303 127.788182 
L 215.334303 126.068636 
L 215.998101 126.068636 
L 218.653293 125.495455 
L 219.317091 125.495455 
L 219.317091 123.775909 
L 219.980889 123.775909 
L 219.980889 123.202727 
L 223.299879 123.202727 
L 223.299879 122.629545 
L 225.955071 122.629545 
L 225.955071 122.056364 
L 226.618869 122.056364 
L 227.946465 120.91 
L 228.610263 120.91 
L 228.610263 120.336818 
L 229.274061 120.336818 
L 229.274061 119.763636 
L 229.937859 119.763636 
L 229.937859 118.617273 
L 231.265455 118.617273 
L 231.265455 118.044091 
L 237.239636 118.044091 
L 237.903434 117.470909 
L 239.23103 117.470909 
L 239.23103 116.897727 
L 245.205212 116.897727 
L 245.205212 114.605 
L 246.532808 114.605 
L 246.532808 114.031818 
L 248.524202 114.031818 
L 248.524202 112.312273 
L 249.188 112.312273 
L 249.188 111.739091 
L 251.179394 111.739091 
L 251.179394 110.592727 
L 251.843192 110.019545 
L 251.843192 109.446364 
L 257.153576 109.446364 
L 257.153576 108.3 
L 259.808768 108.3 
L 259.808768 107.726818 
L 261.136364 107.726818 
L 261.800162 107.153636 
L 261.800162 106.580455 
L 263.791556 106.580455 
L 263.791556 106.007273 
L 265.119152 106.007273 
L 265.119152 105.434091 
L 271.093333 105.434091 
L 271.093333 104.860909 
L 275.076121 104.860909 
L 275.076121 103.714545 
L 275.739919 103.141364 
L 276.403717 103.141364 
L 276.403717 101.995 
L 279.058909 101.995 
L 279.058909 101.421818 
L 286.360687 101.421818 
L 286.360687 100.848636 
L 290.343475 100.848636 
L 290.343475 100.275455 
L 291.007273 100.275455 
L 291.007273 99.702273 
L 294.326263 99.702273 
L 294.326263 98.555909 
L 294.990061 98.555909 
L 294.990061 97.409545 
L 297.645253 97.409545 
L 297.645253 96.836364 
L 298.309051 96.836364 
L 298.309051 96.263182 
L 312.248808 96.263182 
L 312.248808 95.69 
L 316.895394 95.69 
L 318.22299 95.116818 
L 318.22299 94.543636 
L 319.550586 93.970455 
L 320.214384 93.970455 
L 320.214384 93.397273 
L 328.17996 93.397273 
L 328.17996 92.824091 
L 331.498949 92.824091 
L 332.826545 92.250909 
L 333.490343 92.250909 
L 334.154141 91.677727 
L 334.817939 91.677727 
L 334.817939 90.531364 
L 343.447313 90.531364 
L 343.447313 89.958182 
L 348.093899 89.958182 
L 348.757697 88.811818 
L 350.749091 88.811818 
L 354.068081 87.665455 
L 356.723273 87.665455 
L 356.723273 87.092273 
L 359.378465 87.092273 
L 359.378465 86.519091 
L 360.042263 86.519091 
L 360.042263 85.945909 
L 362.033657 85.945909 
L 362.033657 85.372727 
L 364.025051 85.372727 
L 364.025051 84.799545 
L 364.688848 84.799545 
L 366.016444 84.226364 
L 369.335434 84.226364 
L 369.335434 83.08 
L 370.66303 83.08 
L 371.990626 81.933636 
L 373.318222 81.933636 
L 373.318222 81.360455 
L 377.964808 81.360455 
L 378.628606 79.640909 
L 379.956202 79.640909 
L 379.956202 79.067727 
L 381.947596 79.067727 
L 381.947596 78.494545 
L 385.266586 78.494545 
L 385.266586 77.921364 
L 385.930384 77.921364 
L 385.930384 76.775 
L 392.568364 76.775 
L 393.232162 76.201818 
L 393.232162 75.055455 
L 405.844323 75.055455 
L 405.844323 73.909091 
L 411.154707 73.909091 
L 411.154707 73.335909 
L 413.146101 73.335909 
L 416.465091 72.762727 
L 418.456485 72.762727 
L 418.456485 72.189545 
L 421.775475 72.189545 
L 421.775475 71.616364 
L 423.103071 71.616364 
L 423.766869 71.043182 
L 427.085859 71.043182 
L 427.085859 69.323636 
L 441.689414 69.323636 
L 441.689414 68.750455 
L 457.620566 68.750455 
L 457.620566 68.177273 
L 466.913737 68.177273 
L 468.241333 67.604091 
L 470.896525 67.604091 
L 473.551717 67.030909 
L 479.525899 67.030909 
L 480.189697 66.457727 
L 493.465657 66.457727 
L 494.129455 65.884545 
L 520.017576 65.884545 
L 520.017576 64.738182 
L 522.00897 64.738182 
L 522.672768 64.165 
L 524.664162 64.165 
L 524.664162 63.018636 
L 526.655556 63.018636 
L 526.655556 62.445455 
L 531.302141 62.445455 
L 531.965939 61.872273 
L 535.284929 61.872273 
L 536.612525 61.299091 
L 539.267717 61.299091 
L 539.267717 60.725909 
L 545.905697 60.725909 
L 547.897091 59.579545 
L 553.871273 59.579545 
L 553.871273 59.006364 
L 557.854061 59.006364 
L 557.854061 58.433182 
L 569.138626 58.433182 
L 569.138626 57.286818 
L 573.785212 57.286818 
L 573.785212 56.713636 
L 584.40598 56.713636 
L 584.40598 56.140455 
L 589.052566 56.140455 
L 589.052566 55.567273 
L 591.04396 55.567273 
L 591.04396 54.994091 
L 595.026747 54.994091 
L 595.026747 53.847727 
L 598.345737 53.847727 
L 600.337131 53.274545 
L 612.285495 53.274545 
L 612.285495 52.701364 
L 615.604485 52.701364 
L 615.604485 52.128182 
L 628.216646 52.128182 
L 628.880444 51.555 
L 628.880444 50.981818 
L 630.20804 50.981818 
L 630.20804 49.835455 
L 663.397939 49.835455 
L 663.397939 49.262273 
L 672.691111 49.262273 
L 674.682505 48.689091 
L 679.329091 48.689091 
L 679.329091 48.689091 
" clip-path="url(#p2cba58a881)" style="fill: none; stroke: #1f77b4; stroke-linecap: square"/>
   </g>
   <g id="line2d_26">
    <path d="M 81.910909 369.670909 
L 94.523071 345.024091 
L 94.523071 328.975 
L 95.186869 326.109091 
L 95.186869 325.535909 
L 95.850667 320.950455 
L 95.850667 314.072273 
L 96.514465 313.499091 
L 96.514465 300.315909 
L 97.178263 296.876818 
L 97.842061 296.876818 
L 98.505859 293.437727 
L 99.169657 293.437727 
L 99.833455 287.705909 
L 99.833455 286.559545 
L 100.497253 281.974091 
L 101.824848 281.974091 
L 103.816242 276.815455 
L 103.816242 275.669091 
L 104.48004 271.083636 
L 104.48004 259.62 
L 105.143838 257.900455 
L 105.143838 256.180909 
L 105.807636 252.168636 
L 105.807636 251.022273 
L 106.471434 248.156364 
L 106.471434 247.583182 
L 107.135232 244.717273 
L 107.135232 241.851364 
L 107.79903 239.558636 
L 107.79903 238.412273 
L 109.126626 237.265909 
L 109.126626 236.119545 
L 109.790424 232.680455 
L 109.790424 230.960909 
L 111.781818 225.802273 
L 111.781818 224.655909 
L 112.445616 220.643636 
L 112.445616 218.924091 
L 113.109414 212.619091 
L 114.43701 210.899545 
L 114.43701 206.314091 
L 115.100808 205.167727 
L 115.100808 202.301818 
L 117.092202 199.435909 
L 117.092202 193.704091 
L 117.756 190.838182 
L 117.756 190.265 
L 118.419798 189.118636 
L 119.747394 187.972273 
L 122.402586 183.96 
L 122.402586 180.520909 
L 123.066384 180.520909 
L 123.730182 176.508636 
L 123.730182 171.923182 
L 124.39398 168.484091 
L 124.39398 163.898636 
L 125.721576 163.898636 
L 128.376768 159.313182 
L 129.704364 158.74 
L 130.368162 156.447273 
L 131.695758 155.874091 
L 132.359556 155.874091 
L 132.359556 155.300909 
L 133.023354 153.581364 
L 133.023354 152.435 
L 134.350949 150.715455 
L 134.350949 150.142273 
L 135.014747 148.995909 
L 135.678545 148.995909 
L 135.678545 148.422727 
L 137.669939 146.13 
L 138.997535 146.13 
L 141.652727 143.837273 
L 142.316525 142.117727 
L 142.316525 141.544545 
L 143.644121 141.544545 
L 144.307919 140.971364 
L 146.299313 140.398182 
L 146.299313 139.825 
L 146.963111 139.825 
L 146.963111 139.251818 
L 150.945899 135.239545 
L 153.601091 134.093182 
L 155.592485 131.800455 
L 156.256283 131.227273 
L 156.920081 131.227273 
L 158.247677 130.654091 
L 158.247677 129.507727 
L 158.911475 128.934545 
L 160.902869 128.361364 
L 162.230465 126.068636 
L 163.558061 126.068636 
L 163.558061 123.202727 
L 164.885657 122.629545 
L 165.549455 122.629545 
L 170.859838 119.190455 
L 172.187434 116.897727 
L 175.506424 116.897727 
L 175.506424 116.324545 
L 176.83402 115.178182 
L 177.497818 115.178182 
L 178.825414 113.458636 
L 179.489212 113.458636 
L 179.489212 112.885455 
L 181.480606 111.739091 
L 182.144404 111.739091 
L 182.808202 110.019545 
L 184.135798 110.019545 
L 185.463394 109.446364 
L 185.463394 107.726818 
L 186.127192 106.007273 
L 186.79099 106.007273 
L 187.454788 105.434091 
L 188.782384 105.434091 
L 191.437576 103.141364 
L 192.101374 103.141364 
L 192.101374 102.568182 
L 192.765172 101.421818 
L 194.092768 101.421818 
L 195.420364 99.702273 
L 196.74796 99.702273 
L 197.411758 99.129091 
L 200.730747 97.982727 
L 200.730747 97.409545 
L 208.696323 95.116818 
L 211.351515 95.116818 
L 215.334303 92.250909 
L 221.308485 91.104545 
L 221.972283 89.958182 
L 221.972283 89.385 
L 222.636081 89.385 
L 222.636081 88.811818 
L 230.601657 88.238636 
L 233.256848 88.238636 
L 234.584444 87.665455 
L 236.575838 87.665455 
L 241.222424 87.092273 
L 242.55002 87.092273 
L 245.86901 84.226364 
L 259.808768 84.226364 
L 261.136364 83.653182 
L 264.455354 83.653182 
L 267.774343 82.506818 
L 268.438141 82.506818 
L 269.765737 81.933636 
L 273.084727 81.360455 
L 274.412323 80.787273 
L 275.076121 80.787273 
L 280.386505 79.640909 
L 282.377899 79.640909 
L 294.326263 77.921364 
L 299.636646 77.348182 
L 312.248808 77.348182 
L 312.248808 76.775 
L 313.576404 76.775 
L 324.197172 75.628636 
L 325.524768 75.628636 
L 327.516162 75.055455 
L 327.516162 74.482273 
L 332.826545 73.909091 
L 336.145535 73.909091 
L 336.145535 72.762727 
L 336.809333 72.189545 
L 350.085293 71.616364 
L 351.412889 71.043182 
L 352.740485 71.043182 
L 358.714667 70.47 
L 364.025051 70.47 
L 374.645818 69.896818 
L 379.292404 69.896818 
L 394.559758 68.177273 
L 395.887354 68.177273 
L 400.533939 67.030909 
L 411.818505 65.884545 
L 414.473697 65.311364 
L 426.422061 65.311364 
L 431.068646 64.738182 
L 433.06004 64.738182 
L 450.318788 63.018636 
L 452.97398 63.018636 
L 458.284364 62.445455 
L 458.284364 61.299091 
L 510.060606 61.299091 
L 525.991758 60.725909 
L 535.284929 60.725909 
L 550.552283 59.579545 
L 571.13002 59.579545 
L 575.112808 59.006364 
L 616.932081 59.006364 
L 679.329091 48.689091 
L 679.329091 48.689091 
" clip-path="url(#p2cba58a881)" style="fill: none; stroke: #ff7f0e; stroke-linecap: square"/>
   </g>
   <g id="line2d_27">
    <path d="M 81.910909 369.670909 
L 81.910909 351.329091 
L 82.574707 351.329091 
L 82.574707 343.304545 
L 83.238505 343.304545 
L 83.238505 324.389545 
L 83.902303 324.389545 
L 83.902303 323.816364 
L 84.566101 323.816364 
L 84.566101 308.340455 
L 85.229899 308.340455 
L 85.229899 299.169545 
L 85.893697 299.169545 
L 85.893697 294.584091 
L 86.557495 294.584091 
L 86.557495 280.827727 
L 87.221293 280.827727 
L 87.221293 275.669091 
L 88.548889 275.669091 
L 88.548889 274.522727 
L 89.212687 274.522727 
L 89.212687 273.376364 
L 89.876485 273.376364 
L 89.876485 269.364091 
L 90.540283 269.364091 
L 90.540283 264.778636 
L 91.204081 264.778636 
L 91.204081 252.168636 
L 91.867879 252.168636 
L 91.867879 249.302727 
L 93.195475 249.302727 
L 93.195475 247.583182 
L 93.859273 247.583182 
L 93.859273 243.570909 
L 94.523071 243.570909 
L 94.523071 240.705 
L 95.186869 240.705 
L 95.186869 238.985455 
L 95.850667 238.985455 
L 95.850667 232.107273 
L 97.178263 232.107273 
L 97.178263 230.387727 
L 98.505859 230.387727 
L 98.505859 228.668182 
L 99.169657 228.668182 
L 99.169657 224.082727 
L 99.833455 224.082727 
L 99.833455 220.070455 
L 100.497253 219.497273 
L 100.497253 217.777727 
L 101.161051 217.777727 
L 101.161051 213.192273 
L 102.488646 213.192273 
L 102.488646 212.619091 
L 103.816242 212.619091 
L 103.816242 208.033636 
L 105.143838 208.033636 
L 105.143838 206.887273 
L 106.471434 206.887273 
L 106.471434 204.594545 
L 107.79903 204.594545 
L 107.79903 201.728636 
L 108.462828 201.728636 
L 108.462828 200.009091 
L 109.126626 200.009091 
L 109.126626 199.435909 
L 110.454222 199.435909 
L 110.454222 198.289545 
L 112.445616 198.289545 
L 112.445616 196.57 
L 114.43701 196.57 
L 114.43701 195.996818 
L 115.100808 195.996818 
L 115.100808 193.704091 
L 116.428404 193.704091 
L 116.428404 191.984545 
L 117.092202 191.984545 
L 117.092202 190.838182 
L 118.419798 190.838182 
L 118.419798 189.118636 
L 119.083596 189.118636 
L 119.083596 186.825909 
L 121.07499 186.825909 
L 121.07499 185.679545 
L 122.402586 185.679545 
L 122.402586 183.96 
L 125.057778 183.96 
L 125.057778 183.386818 
L 125.721576 183.386818 
L 125.721576 179.374545 
L 126.385374 179.374545 
L 127.049172 178.801364 
L 127.049172 178.228182 
L 130.368162 178.228182 
L 130.368162 176.508636 
L 131.03196 175.935455 
L 131.695758 175.935455 
L 131.695758 175.362273 
L 133.023354 175.362273 
L 133.023354 173.642727 
L 134.350949 173.642727 
L 134.350949 173.069545 
L 135.678545 173.069545 
L 135.678545 172.496364 
L 136.342343 172.496364 
L 136.342343 171.923182 
L 137.006141 171.923182 
L 137.006141 170.776818 
L 137.669939 170.776818 
L 137.669939 169.057273 
L 138.333737 169.057273 
L 138.333737 168.484091 
L 138.997535 168.484091 
L 138.997535 167.910909 
L 140.988929 167.910909 
L 140.988929 166.764545 
L 141.652727 166.764545 
L 141.652727 165.045 
L 142.980323 165.045 
L 142.980323 162.179091 
L 143.644121 162.179091 
L 143.644121 161.605909 
L 144.971717 161.605909 
L 144.971717 161.032727 
L 145.635515 161.032727 
L 145.635515 158.74 
L 146.963111 158.74 
L 146.963111 157.593636 
L 149.618303 157.593636 
L 149.618303 157.020455 
L 150.282101 157.020455 
L 150.282101 155.874091 
L 150.945899 155.874091 
L 150.945899 155.300909 
L 151.609697 155.300909 
L 151.609697 151.288636 
L 152.273495 151.288636 
L 152.273495 150.142273 
L 152.937293 150.142273 
L 152.937293 149.569091 
L 153.601091 149.569091 
L 153.601091 148.422727 
L 156.256283 148.422727 
L 156.256283 147.276364 
L 156.920081 147.276364 
L 156.920081 146.13 
L 157.583879 146.13 
L 157.583879 144.983636 
L 158.247677 144.983636 
L 158.247677 144.410455 
L 159.575273 144.410455 
L 159.575273 143.837273 
L 160.239071 143.837273 
L 160.239071 143.264091 
L 160.902869 143.264091 
L 160.902869 140.971364 
L 163.558061 140.971364 
L 163.558061 138.105455 
L 164.221859 138.105455 
L 164.221859 136.959091 
L 165.549455 136.959091 
L 165.549455 136.385909 
L 166.877051 136.385909 
L 167.540848 135.812727 
L 170.19604 135.812727 
L 170.19604 134.666364 
L 173.51503 134.666364 
L 173.51503 133.52 
L 174.178828 133.52 
L 174.178828 132.946818 
L 177.497818 132.946818 
L 177.497818 131.800455 
L 180.15301 131.800455 
L 180.15301 131.227273 
L 180.816808 131.227273 
L 180.816808 130.080909 
L 183.472 130.080909 
L 183.472 129.507727 
L 189.446182 129.507727 
L 189.446182 128.361364 
L 193.42897 128.361364 
L 193.42897 127.788182 
L 195.420364 127.788182 
L 195.420364 127.215 
L 196.084162 127.215 
L 196.084162 126.068636 
L 196.74796 126.068636 
L 196.74796 125.495455 
L 197.411758 125.495455 
L 197.411758 124.349091 
L 198.075556 124.349091 
L 198.075556 123.202727 
L 198.739354 123.202727 
L 198.739354 120.91 
L 199.403152 120.91 
L 199.403152 120.336818 
L 201.394545 120.336818 
L 201.394545 119.763636 
L 204.049737 119.763636 
L 204.049737 119.190455 
L 206.041131 119.190455 
L 206.041131 118.044091 
L 207.368727 118.044091 
L 207.368727 116.897727 
L 212.679111 116.897727 
L 212.679111 116.324545 
L 214.006707 116.324545 
L 214.006707 115.751364 
L 214.670505 115.751364 
L 214.670505 114.031818 
L 215.334303 114.031818 
L 215.334303 112.885455 
L 217.989495 112.885455 
L 217.989495 112.312273 
L 219.317091 112.312273 
L 219.317091 111.739091 
L 220.644687 111.739091 
L 220.644687 110.592727 
L 221.972283 110.592727 
L 221.972283 110.019545 
L 225.955071 110.019545 
L 225.955071 109.446364 
L 227.282667 109.446364 
L 227.282667 108.3 
L 227.946465 108.3 
L 227.946465 107.153636 
L 232.593051 107.153636 
L 232.593051 106.580455 
L 233.920646 106.580455 
L 233.920646 105.434091 
L 235.91204 105.434091 
L 235.91204 104.860909 
L 237.903434 104.860909 
L 237.903434 104.287727 
L 242.55002 104.287727 
L 242.55002 102.568182 
L 243.213818 102.568182 
L 243.213818 100.848636 
L 244.541414 100.848636 
L 244.541414 99.702273 
L 250.515596 99.702273 
L 250.515596 99.129091 
L 255.162182 99.129091 
L 255.162182 97.982727 
L 261.800162 97.982727 
L 261.800162 97.409545 
L 263.127758 97.409545 
L 263.127758 96.263182 
L 265.782949 96.263182 
L 265.782949 95.69 
L 270.429535 95.69 
L 270.429535 95.116818 
L 272.420929 95.116818 
L 272.420929 94.543636 
L 275.739919 94.543636 
L 275.739919 93.970455 
L 279.058909 93.970455 
L 279.058909 93.397273 
L 281.050303 93.397273 
L 281.050303 92.824091 
L 284.369293 92.824091 
L 284.369293 92.250909 
L 296.317657 92.250909 
L 296.317657 91.677727 
L 296.981455 91.677727 
L 296.981455 91.104545 
L 297.645253 91.104545 
L 297.645253 90.531364 
L 298.309051 90.531364 
L 298.309051 89.958182 
L 307.602222 89.958182 
L 307.602222 88.811818 
L 308.26602 88.811818 
L 308.26602 88.238636 
L 312.248808 88.238636 
L 312.248808 87.092273 
L 318.22299 87.092273 
L 318.22299 86.519091 
L 319.550586 86.519091 
L 319.550586 85.945909 
L 323.533374 85.945909 
L 323.533374 84.799545 
L 327.516162 84.799545 
L 327.516162 84.226364 
L 331.498949 84.226364 
L 331.498949 83.653182 
L 334.154141 83.653182 
L 334.154141 83.08 
L 334.817939 83.08 
L 334.817939 82.506818 
L 336.145535 82.506818 
L 336.145535 81.933636 
L 338.800727 81.933636 
L 338.800727 81.360455 
L 342.119717 81.360455 
L 342.119717 80.787273 
L 344.774909 80.787273 
L 344.774909 80.214091 
L 348.757697 80.214091 
L 348.757697 79.640909 
L 352.076687 79.640909 
L 352.076687 79.067727 
L 356.059475 79.067727 
L 356.059475 78.494545 
L 366.680242 78.494545 
L 366.680242 77.921364 
L 368.007838 77.921364 
L 368.007838 77.348182 
L 374.645818 77.348182 
L 374.645818 76.775 
L 375.309616 76.775 
L 375.309616 76.201818 
L 375.973414 76.201818 
L 375.973414 75.628636 
L 377.964808 75.628636 
L 377.964808 75.055455 
L 379.956202 75.055455 
L 379.956202 73.909091 
L 380.62 73.335909 
L 382.611394 73.335909 
L 382.611394 72.189545 
L 383.275192 72.189545 
L 383.275192 71.616364 
L 384.602788 71.616364 
L 384.602788 70.47 
L 395.223556 70.47 
L 395.223556 69.896818 
L 403.189131 69.896818 
L 403.189131 69.323636 
L 408.499515 69.323636 
L 408.499515 68.750455 
L 411.154707 68.750455 
L 411.154707 68.177273 
L 415.801293 68.177273 
L 415.801293 67.604091 
L 417.792687 67.604091 
L 417.792687 67.030909 
L 419.120283 67.030909 
L 419.120283 66.457727 
L 432.396242 66.457727 
L 432.396242 65.884545 
L 433.06004 65.884545 
L 433.06004 65.311364 
L 435.051434 65.311364 
L 435.051434 64.738182 
L 442.353212 64.738182 
L 442.353212 64.165 
L 455.629172 64.165 
L 455.629172 63.591818 
L 466.249939 63.591818 
L 466.249939 63.018636 
L 468.241333 63.018636 
L 468.241333 62.445455 
L 476.870707 62.445455 
L 476.870707 61.872273 
L 480.853495 61.872273 
L 480.853495 61.299091 
L 488.819071 61.299091 
L 488.819071 60.725909 
L 510.724404 60.725909 
L 510.724404 60.152727 
L 524.000364 60.152727 
L 524.664162 59.579545 
L 526.655556 59.579545 
L 526.655556 59.006364 
L 541.259111 59.006364 
L 541.259111 58.433182 
L 541.922909 58.433182 
L 541.922909 57.286818 
L 555.862667 57.286818 
L 555.862667 56.713636 
L 560.509253 56.713636 
L 560.509253 56.140455 
L 575.776606 56.140455 
L 575.776606 55.567273 
L 595.026747 55.567273 
L 595.026747 54.420909 
L 597.018141 54.420909 
L 597.681939 53.847727 
L 603.656121 53.847727 
L 603.656121 53.274545 
L 611.621697 53.274545 
L 611.621697 52.701364 
L 625.561455 52.701364 
L 625.561455 52.128182 
L 640.16501 52.128182 
L 640.16501 50.981818 
L 641.492606 50.981818 
L 641.492606 50.408636 
L 652.777172 50.408636 
L 654.768566 49.835455 
L 670.699717 49.835455 
L 670.699717 49.262273 
L 671.363515 49.262273 
L 671.363515 48.689091 
L 679.329091 48.689091 
L 679.329091 48.689091 
" clip-path="url(#p2cba58a881)" style="fill: none; stroke: #2ca02c; stroke-linecap: square"/>
   </g>
   <g id="line2d_28">
    <path d="M 81.910909 369.670909 
L 81.910909 358.207273 
L 82.574707 353.621818 
L 82.574707 340.438636 
L 83.238505 340.438636 
L 83.238505 333.560455 
L 83.902303 333.560455 
L 83.902303 328.401818 
L 84.566101 327.828636 
L 86.557495 323.243182 
L 86.557495 313.499091 
L 87.885091 311.206364 
L 87.885091 310.633182 
L 89.212687 302.608636 
L 89.876485 302.608636 
L 89.876485 294.584091 
L 90.540283 294.584091 
L 91.204081 290.571818 
L 91.204081 283.693636 
L 92.531677 279.108182 
L 93.195475 279.108182 
L 93.195475 278.535 
L 93.859273 274.522727 
L 93.859273 267.644545 
L 94.523071 267.071364 
L 94.523071 264.778636 
L 95.186869 263.632273 
L 95.186869 257.900455 
L 95.850667 257.900455 
L 95.850667 254.461364 
L 97.178263 250.449091 
L 97.178263 248.156364 
L 97.842061 244.144091 
L 97.842061 238.412273 
L 98.505859 238.412273 
L 98.505859 237.265909 
L 99.169657 237.265909 
L 99.169657 221.216818 
L 99.833455 221.216818 
L 100.497253 220.643636 
L 101.161051 220.643636 
L 102.488646 218.350909 
L 102.488646 216.058182 
L 104.48004 215.485 
L 104.48004 213.765455 
L 105.143838 210.899545 
L 105.143838 210.326364 
L 106.471434 210.326364 
L 106.471434 205.740909 
L 107.135232 205.740909 
L 108.462828 204.594545 
L 108.462828 202.875 
L 109.126626 202.301818 
L 109.126626 200.009091 
L 109.790424 200.009091 
L 110.454222 195.423636 
L 110.454222 192.557727 
L 111.781818 189.118636 
L 111.781818 188.545455 
L 112.445616 185.106364 
L 113.773212 185.106364 
L 113.773212 184.533182 
L 115.100808 183.96 
L 115.764606 183.96 
L 115.764606 179.374545 
L 116.428404 177.081818 
L 116.428404 176.508636 
L 117.092202 175.935455 
L 117.092202 175.362273 
L 119.083596 173.642727 
L 119.747394 173.642727 
L 119.747394 172.496364 
L 120.411192 172.496364 
L 121.07499 171.923182 
L 124.39398 170.203636 
L 124.39398 168.484091 
L 125.057778 168.484091 
L 125.721576 166.191364 
L 125.721576 165.618182 
L 126.385374 165.618182 
L 126.385374 165.045 
L 127.049172 163.325455 
L 127.049172 162.752273 
L 129.704364 160.459545 
L 130.368162 158.166818 
L 131.03196 158.166818 
L 131.03196 157.593636 
L 131.695758 157.020455 
L 131.695758 153.581364 
L 132.359556 153.581364 
L 132.359556 151.861818 
L 133.023354 148.422727 
L 133.023354 147.276364 
L 134.350949 144.983636 
L 134.350949 144.410455 
L 135.014747 144.410455 
L 135.678545 143.837273 
L 135.678545 143.264091 
L 136.342343 143.264091 
L 136.342343 142.117727 
L 138.997535 142.117727 
L 138.997535 140.971364 
L 139.661333 140.971364 
L 140.325131 139.825 
L 141.652727 139.825 
L 141.652727 139.251818 
L 142.980323 139.251818 
L 144.971717 138.678636 
L 144.971717 137.532273 
L 148.954505 137.532273 
L 148.954505 136.385909 
L 149.618303 136.385909 
L 150.282101 135.239545 
L 150.945899 135.239545 
L 152.937293 132.946818 
L 152.937293 131.227273 
L 153.601091 131.227273 
L 153.601091 130.654091 
L 155.592485 130.080909 
L 157.583879 130.080909 
L 157.583879 128.934545 
L 158.247677 128.934545 
L 158.247677 127.788182 
L 158.911475 126.641818 
L 160.239071 126.641818 
L 160.239071 125.495455 
L 164.885657 124.349091 
L 168.204646 123.775909 
L 168.204646 123.202727 
L 171.523636 123.202727 
L 171.523636 122.056364 
L 172.851232 120.91 
L 173.51503 120.91 
L 174.178828 120.336818 
L 174.178828 119.190455 
L 174.842626 119.190455 
L 176.170222 116.897727 
L 176.170222 114.605 
L 177.497818 114.605 
L 180.15301 112.885455 
L 180.15301 112.312273 
L 180.816808 112.312273 
L 180.816808 111.739091 
L 182.808202 110.019545 
L 184.135798 110.019545 
L 184.799596 106.580455 
L 185.463394 106.580455 
L 185.463394 106.007273 
L 186.127192 106.007273 
L 186.127192 105.434091 
L 187.454788 102.568182 
L 190.10998 102.568182 
L 191.437576 101.995 
L 191.437576 101.421818 
L 192.765172 101.421818 
L 192.765172 100.848636 
L 194.092768 100.848636 
L 196.74796 99.702273 
L 196.74796 98.555909 
L 198.075556 98.555909 
L 198.075556 97.982727 
L 198.739354 97.982727 
L 201.394545 97.409545 
L 202.058343 97.409545 
L 202.058343 96.836364 
L 202.722141 96.836364 
L 203.385939 96.263182 
L 205.377333 96.263182 
L 207.368727 95.69 
L 208.032525 95.69 
L 208.032525 95.116818 
L 210.687717 95.116818 
L 212.679111 93.397273 
L 215.334303 93.397273 
L 215.998101 91.677727 
L 217.989495 91.104545 
L 218.653293 91.104545 
L 221.308485 90.531364 
L 223.963677 90.531364 
L 225.291273 89.385 
L 226.618869 89.385 
L 226.618869 88.238636 
L 233.256848 88.238636 
L 233.256848 87.665455 
L 234.584444 87.665455 
L 237.239636 87.092273 
L 237.239636 86.519091 
L 237.903434 86.519091 
L 241.886222 85.372727 
L 242.55002 85.372727 
L 243.213818 84.799545 
L 245.86901 84.799545 
L 247.860404 83.653182 
L 248.524202 83.08 
L 251.843192 83.08 
L 257.153576 82.506818 
L 257.153576 81.933636 
L 258.481172 81.933636 
L 262.46396 81.360455 
L 266.446747 81.360455 
L 266.446747 80.787273 
L 269.101939 80.787273 
L 270.429535 80.214091 
L 270.429535 79.067727 
L 271.757131 79.067727 
L 274.412323 78.494545 
L 276.403717 78.494545 
L 279.058909 77.348182 
L 287.688283 77.348182 
L 296.317657 76.775 
L 296.317657 76.201818 
L 296.981455 76.201818 
L 296.981455 75.628636 
L 305.610828 74.482273 
L 314.240202 74.482273 
L 314.904 73.909091 
L 316.895394 73.335909 
L 337.473131 73.335909 
L 344.111111 72.762727 
L 350.749091 72.762727 
L 356.723273 71.616364 
L 368.671636 71.616364 
L 369.335434 70.47 
L 371.326828 70.47 
L 375.309616 69.323636 
L 375.973414 69.323636 
L 375.973414 68.750455 
L 381.947596 68.750455 
L 381.947596 68.177273 
L 391.240768 68.177273 
L 391.240768 67.604091 
L 413.809899 67.604091 
L 414.473697 67.030909 
L 416.465091 67.030909 
L 417.128889 66.457727 
L 417.792687 66.457727 
L 417.792687 65.311364 
L 429.741051 65.311364 
L 430.404848 64.165 
L 431.068646 64.165 
L 441.025616 63.018636 
L 445.672202 63.018636 
L 448.991192 62.445455 
L 452.97398 62.445455 
L 461.603354 61.299091 
L 469.568929 61.299091 
L 480.189697 60.152727 
L 480.189697 59.579545 
L 483.508687 59.579545 
L 487.491475 59.006364 
L 489.482869 59.006364 
L 502.758828 57.86 
L 525.32796 57.86 
L 528.646949 57.286818 
L 533.293535 57.286818 
L 547.897091 55.567273 
L 549.888485 55.567273 
L 553.871273 54.994091 
L 553.871273 54.420909 
L 556.526465 54.420909 
L 580.423192 52.701364 
L 580.423192 52.128182 
L 585.733576 52.128182 
L 605.647515 50.981818 
L 610.294101 50.981818 
L 612.285495 49.835455 
L 612.949293 49.835455 
L 634.854626 49.262273 
L 639.501212 48.689091 
L 679.329091 48.689091 
L 679.329091 48.689091 
" clip-path="url(#p2cba58a881)" style="fill: none; stroke: #d62728; stroke-linecap: square"/>
   </g>
   <g id="line2d_29">
    <path d="M 81.910909 369.670909 
L 679.329091 48.689091 
" clip-path="url(#p2cba58a881)" style="fill: none; stroke-dasharray: 7.4,3.2; stroke-dashoffset: 0; stroke: #000000; stroke-opacity: 0.5; stroke-width: 2"/>
   </g>
   <g id="patch_3">
    <path d="M 52.04 385.72 
L 52.04 32.64 
" style="fill: none; stroke: #000000; stroke-width: 0.8; stroke-linejoin: miter; stroke-linecap: square"/>
   </g>
   <g id="patch_4">
    <path d="M 709.2 385.72 
L 709.2 32.64 
" style="fill: none; stroke: #000000; stroke-width: 0.8; stroke-linejoin: miter; stroke-linecap: square"/>
   </g>
   <g id="patch_5">
    <path d="M 52.04 385.72 
L 709.2 385.72 
" style="fill: none; stroke: #000000; stroke-width: 0.8; stroke-linejoin: miter; stroke-linecap: square"/>
   </g>
   <g id="patch_6">
    <path d="M 52.04 32.64 
L 709.2 32.64 
" style="fill: none; stroke: #000000; stroke-width: 0.8; stroke-linejoin: miter; stroke-linecap: square"/>
   </g>
   <g id="text_15">
    <!-- ROC Curves -->
    <g transform="translate(320.92625 26.64) scale(0.2 -0.2)">
     <defs>
      <path id="DejaVuSans-4f" d="M 2522 4238 
Q 1834 4238 1429 3725 
Q 1025 3213 1025 2328 
Q 1025 1447 1429 934 
Q 1834 422 2522 422 
Q 3209 422 3611 934 
Q 4013 1447 4013 2328 
Q 4013 3213 3611 3725 
Q 3209 4238 2522 4238 
z
M 2522 4750 
Q 3503 4750 4090 4092 
Q 4678 3434 4678 2328 
Q 4678 1225 4090 567 
Q 3503 -91 2522 -91 
Q 1538 -91 948 565 
Q 359 1222 359 2328 
Q 359 3434 948 4092 
Q 1538 4750 2522 4750 
z
" transform="scale(0.015625)"/>
      <path id="DejaVuSans-43" d="M 4122 4306 
L 4122 3641 
Q 3803 3938 3442 4084 
Q 3081 4231 2675 4231 
Q 1875 4231 1450 3742 
Q 1025 3253 1025 2328 
Q 1025 1406 1450 917 
Q 1875 428 2675 428 
Q 3081 428 3442 575 
Q 3803 722 4122 1019 
L 4122 359 
Q 3791 134 3420 21 
Q 3050 -91 2638 -91 
Q 1578 -91 968 557 
Q 359 1206 359 2328 
Q 359 3453 968 4101 
Q 1578 4750 2638 4750 
Q 3056 4750 3426 4639 
Q 3797 4528 4122 4306 
z
" transform="scale(0.015625)"/>
     </defs>
     <use xlink:href="#DejaVuSans-52"/>
     <use xlink:href="#DejaVuSans-4f" x="69.482422"/>
     <use xlink:href="#DejaVuSans-43" x="148.193359"/>
     <use xlink:href="#DejaVuSans-20" x="218.017578"/>
     <use xlink:href="#DejaVuSans-43" x="249.804688"/>
     <use xlink:href="#DejaVuSans-75" x="319.628906"/>
     <use xlink:href="#DejaVuSans-72" x="383.007812"/>
     <use xlink:href="#DejaVuSans-76" x="424.121094"/>
     <use xlink:href="#DejaVuSans-65" x="483.300781"/>
     <use xlink:href="#DejaVuSans-73" x="544.824219"/>
    </g>
   </g>
   <g id="legend_1">
    <g id="patch_7">
     <path d="M 501.88875 379.72 
L 700.8 379.72 
Q 703.2 379.72 703.2 377.32 
L 703.2 290.45125 
Q 703.2 288.05125 700.8 288.05125 
L 501.88875 288.05125 
Q 499.48875 288.05125 499.48875 290.45125 
L 499.48875 377.32 
Q 499.48875 379.72 501.88875 379.72 
z
" style="fill: #ffffff; opacity: 0.8; stroke: #cccccc; stroke-linejoin: miter"/>
    </g>
    <g id="text_16">
     <!-- AUC -->
     <g transform="translate(588.659063 301.969375) scale(0.12 -0.12)">
      <defs>
       <path id="DejaVuSans-41" d="M 2188 4044 
L 1331 1722 
L 3047 1722 
L 2188 4044 
z
M 1831 4666 
L 2547 4666 
L 4325 0 
L 3669 0 
L 3244 1197 
L 1141 1197 
L 716 0 
L 50 0 
L 1831 4666 
z
" transform="scale(0.015625)"/>
       <path id="DejaVuSans-55" d="M 556 4666 
L 1191 4666 
L 1191 1831 
Q 1191 1081 1462 751 
Q 1734 422 2344 422 
Q 2950 422 3222 751 
Q 3494 1081 3494 1831 
L 3494 4666 
L 4128 4666 
L 4128 1753 
Q 4128 841 3676 375 
Q 3225 -91 2344 -91 
Q 1459 -91 1007 375 
Q 556 841 556 1753 
L 556 4666 
z
" transform="scale(0.015625)"/>
      </defs>
      <use xlink:href="#DejaVuSans-41"/>
      <use xlink:href="#DejaVuSans-55" x="68.408203"/>
      <use xlink:href="#DejaVuSans-43" x="141.601562"/>
     </g>
    </g>
    <g id="line2d_30">
     <path d="M 504.28875 315.383125 
L 516.28875 315.383125 
L 528.28875 315.383125 
" style="fill: none; stroke: #1f77b4; stroke-linecap: square"/>
    </g>
    <g id="text_17">
     <!-- Adaboost = 0.834 -->
     <g transform="translate(537.88875 319.583125) scale(0.12 -0.12)">
      <defs>
       <path id="DejaVuSans-64" d="M 2906 2969 
L 2906 4863 
L 3481 4863 
L 3481 0 
L 2906 0 
L 2906 525 
Q 2725 213 2448 61 
Q 2172 -91 1784 -91 
Q 1150 -91 751 415 
Q 353 922 353 1747 
Q 353 2572 751 3078 
Q 1150 3584 1784 3584 
Q 2172 3584 2448 3432 
Q 2725 3281 2906 2969 
z
M 947 1747 
Q 947 1113 1208 752 
Q 1469 391 1925 391 
Q 2381 391 2643 752 
Q 2906 1113 2906 1747 
Q 2906 2381 2643 2742 
Q 2381 3103 1925 3103 
Q 1469 3103 1208 2742 
Q 947 2381 947 1747 
z
" transform="scale(0.015625)"/>
       <path id="DejaVuSans-62" d="M 3116 1747 
Q 3116 2381 2855 2742 
Q 2594 3103 2138 3103 
Q 1681 3103 1420 2742 
Q 1159 2381 1159 1747 
Q 1159 1113 1420 752 
Q 1681 391 2138 391 
Q 2594 391 2855 752 
Q 3116 1113 3116 1747 
z
M 1159 2969 
Q 1341 3281 1617 3432 
Q 1894 3584 2278 3584 
Q 2916 3584 3314 3078 
Q 3713 2572 3713 1747 
Q 3713 922 3314 415 
Q 2916 -91 2278 -91 
Q 1894 -91 1617 61 
Q 1341 213 1159 525 
L 1159 0 
L 581 0 
L 581 4863 
L 1159 4863 
L 1159 2969 
z
" transform="scale(0.015625)"/>
       <path id="DejaVuSans-3d" d="M 678 2906 
L 4684 2906 
L 4684 2381 
L 678 2381 
L 678 2906 
z
M 678 1631 
L 4684 1631 
L 4684 1100 
L 678 1100 
L 678 1631 
z
" transform="scale(0.015625)"/>
       <path id="DejaVuSans-33" d="M 2597 2516 
Q 3050 2419 3304 2112 
Q 3559 1806 3559 1356 
Q 3559 666 3084 287 
Q 2609 -91 1734 -91 
Q 1441 -91 1130 -33 
Q 819 25 488 141 
L 488 750 
Q 750 597 1062 519 
Q 1375 441 1716 441 
Q 2309 441 2620 675 
Q 2931 909 2931 1356 
Q 2931 1769 2642 2001 
Q 2353 2234 1838 2234 
L 1294 2234 
L 1294 2753 
L 1863 2753 
Q 2328 2753 2575 2939 
Q 2822 3125 2822 3475 
Q 2822 3834 2567 4026 
Q 2313 4219 1838 4219 
Q 1578 4219 1281 4162 
Q 984 4106 628 3988 
L 628 4550 
Q 988 4650 1302 4700 
Q 1616 4750 1894 4750 
Q 2613 4750 3031 4423 
Q 3450 4097 3450 3541 
Q 3450 3153 3228 2886 
Q 3006 2619 2597 2516 
z
" transform="scale(0.015625)"/>
      </defs>
      <use xlink:href="#DejaVuSans-41"/>
      <use xlink:href="#DejaVuSans-64" x="66.658203"/>
      <use xlink:href="#DejaVuSans-61" x="130.134766"/>
      <use xlink:href="#DejaVuSans-62" x="191.414062"/>
      <use xlink:href="#DejaVuSans-6f" x="254.890625"/>
      <use xlink:href="#DejaVuSans-6f" x="316.072266"/>
      <use xlink:href="#DejaVuSans-73" x="377.253906"/>
      <use xlink:href="#DejaVuSans-74" x="429.353516"/>
      <use xlink:href="#DejaVuSans-20" x="468.5625"/>
      <use xlink:href="#DejaVuSans-3d" x="500.349609"/>
      <use xlink:href="#DejaVuSans-20" x="584.138672"/>
      <use xlink:href="#DejaVuSans-30" x="615.925781"/>
      <use xlink:href="#DejaVuSans-2e" x="679.548828"/>
      <use xlink:href="#DejaVuSans-38" x="711.335938"/>
      <use xlink:href="#DejaVuSans-33" x="774.958984"/>
      <use xlink:href="#DejaVuSans-34" x="838.582031"/>
     </g>
    </g>
    <g id="line2d_31">
     <path d="M 504.28875 332.996875 
L 516.28875 332.996875 
L 528.28875 332.996875 
" style="fill: none; stroke: #ff7f0e; stroke-linecap: square"/>
    </g>
    <g id="text_18">
     <!-- Extra Trees = 0.871 -->
     <g transform="translate(537.88875 337.196875) scale(0.12 -0.12)">
      <defs>
       <path id="DejaVuSans-45" d="M 628 4666 
L 3578 4666 
L 3578 4134 
L 1259 4134 
L 1259 2753 
L 3481 2753 
L 3481 2222 
L 1259 2222 
L 1259 531 
L 3634 531 
L 3634 0 
L 628 0 
L 628 4666 
z
" transform="scale(0.015625)"/>
       <path id="DejaVuSans-78" d="M 3513 3500 
L 2247 1797 
L 3578 0 
L 2900 0 
L 1881 1375 
L 863 0 
L 184 0 
L 1544 1831 
L 300 3500 
L 978 3500 
L 1906 2253 
L 2834 3500 
L 3513 3500 
z
" transform="scale(0.015625)"/>
       <path id="DejaVuSans-37" d="M 525 4666 
L 3525 4666 
L 3525 4397 
L 1831 0 
L 1172 0 
L 2766 4134 
L 525 4134 
L 525 4666 
z
" transform="scale(0.015625)"/>
      </defs>
      <use xlink:href="#DejaVuSans-45"/>
      <use xlink:href="#DejaVuSans-78" x="63.183594"/>
      <use xlink:href="#DejaVuSans-74" x="122.363281"/>
      <use xlink:href="#DejaVuSans-72" x="161.572266"/>
      <use xlink:href="#DejaVuSans-61" x="202.685547"/>
      <use xlink:href="#DejaVuSans-20" x="263.964844"/>
      <use xlink:href="#DejaVuSans-54" x="295.751953"/>
      <use xlink:href="#DejaVuSans-72" x="342.085938"/>
      <use xlink:href="#DejaVuSans-65" x="380.949219"/>
      <use xlink:href="#DejaVuSans-65" x="442.472656"/>
      <use xlink:href="#DejaVuSans-73" x="503.996094"/>
      <use xlink:href="#DejaVuSans-20" x="556.095703"/>
      <use xlink:href="#DejaVuSans-3d" x="587.882812"/>
      <use xlink:href="#DejaVuSans-20" x="671.671875"/>
      <use xlink:href="#DejaVuSans-30" x="703.458984"/>
      <use xlink:href="#DejaVuSans-2e" x="767.082031"/>
      <use xlink:href="#DejaVuSans-38" x="798.869141"/>
      <use xlink:href="#DejaVuSans-37" x="862.492188"/>
      <use xlink:href="#DejaVuSans-31" x="926.115234"/>
     </g>
    </g>
    <g id="line2d_32">
     <path d="M 504.28875 350.610625 
L 516.28875 350.610625 
L 528.28875 350.610625 
" style="fill: none; stroke: #2ca02c; stroke-linecap: square"/>
    </g>
    <g id="text_19">
     <!-- Gradient Boosting = 0.863 -->
     <g transform="translate(537.88875 354.810625) scale(0.12 -0.12)">
      <defs>
       <path id="DejaVuSans-47" d="M 3809 666 
L 3809 1919 
L 2778 1919 
L 2778 2438 
L 4434 2438 
L 4434 434 
Q 4069 175 3628 42 
Q 3188 -91 2688 -91 
Q 1594 -91 976 548 
Q 359 1188 359 2328 
Q 359 3472 976 4111 
Q 1594 4750 2688 4750 
Q 3144 4750 3555 4637 
Q 3966 4525 4313 4306 
L 4313 3634 
Q 3963 3931 3569 4081 
Q 3175 4231 2741 4231 
Q 1884 4231 1454 3753 
Q 1025 3275 1025 2328 
Q 1025 1384 1454 906 
Q 1884 428 2741 428 
Q 3075 428 3337 486 
Q 3600 544 3809 666 
z
" transform="scale(0.015625)"/>
       <path id="DejaVuSans-6e" d="M 3513 2113 
L 3513 0 
L 2938 0 
L 2938 2094 
Q 2938 2591 2744 2837 
Q 2550 3084 2163 3084 
Q 1697 3084 1428 2787 
Q 1159 2491 1159 1978 
L 1159 0 
L 581 0 
L 581 3500 
L 1159 3500 
L 1159 2956 
Q 1366 3272 1645 3428 
Q 1925 3584 2291 3584 
Q 2894 3584 3203 3211 
Q 3513 2838 3513 2113 
z
" transform="scale(0.015625)"/>
       <path id="DejaVuSans-42" d="M 1259 2228 
L 1259 519 
L 2272 519 
Q 2781 519 3026 730 
Q 3272 941 3272 1375 
Q 3272 1813 3026 2020 
Q 2781 2228 2272 2228 
L 1259 2228 
z
M 1259 4147 
L 1259 2741 
L 2194 2741 
Q 2656 2741 2882 2914 
Q 3109 3088 3109 3444 
Q 3109 3797 2882 3972 
Q 2656 4147 2194 4147 
L 1259 4147 
z
M 628 4666 
L 2241 4666 
Q 2963 4666 3353 4366 
Q 3744 4066 3744 3513 
Q 3744 3084 3544 2831 
Q 3344 2578 2956 2516 
Q 3422 2416 3680 2098 
Q 3938 1781 3938 1306 
Q 3938 681 3513 340 
Q 3088 0 2303 0 
L 628 0 
L 628 4666 
z
" transform="scale(0.015625)"/>
       <path id="DejaVuSans-67" d="M 2906 1791 
Q 2906 2416 2648 2759 
Q 2391 3103 1925 3103 
Q 1463 3103 1205 2759 
Q 947 2416 947 1791 
Q 947 1169 1205 825 
Q 1463 481 1925 481 
Q 2391 481 2648 825 
Q 2906 1169 2906 1791 
z
M 3481 434 
Q 3481 -459 3084 -895 
Q 2688 -1331 1869 -1331 
Q 1566 -1331 1297 -1286 
Q 1028 -1241 775 -1147 
L 775 -588 
Q 1028 -725 1275 -790 
Q 1522 -856 1778 -856 
Q 2344 -856 2625 -561 
Q 2906 -266 2906 331 
L 2906 616 
Q 2728 306 2450 153 
Q 2172 0 1784 0 
Q 1141 0 747 490 
Q 353 981 353 1791 
Q 353 2603 747 3093 
Q 1141 3584 1784 3584 
Q 2172 3584 2450 3431 
Q 2728 3278 2906 2969 
L 2906 3500 
L 3481 3500 
L 3481 434 
z
" transform="scale(0.015625)"/>
      </defs>
      <use xlink:href="#DejaVuSans-47"/>
      <use xlink:href="#DejaVuSans-72" x="77.490234"/>
      <use xlink:href="#DejaVuSans-61" x="118.603516"/>
      <use xlink:href="#DejaVuSans-64" x="179.882812"/>
      <use xlink:href="#DejaVuSans-69" x="243.359375"/>
      <use xlink:href="#DejaVuSans-65" x="271.142578"/>
      <use xlink:href="#DejaVuSans-6e" x="332.666016"/>
      <use xlink:href="#DejaVuSans-74" x="396.044922"/>
      <use xlink:href="#DejaVuSans-20" x="435.253906"/>
      <use xlink:href="#DejaVuSans-42" x="467.041016"/>
      <use xlink:href="#DejaVuSans-6f" x="535.644531"/>
      <use xlink:href="#DejaVuSans-6f" x="596.826172"/>
      <use xlink:href="#DejaVuSans-73" x="658.007812"/>
      <use xlink:href="#DejaVuSans-74" x="710.107422"/>
      <use xlink:href="#DejaVuSans-69" x="749.316406"/>
      <use xlink:href="#DejaVuSans-6e" x="777.099609"/>
      <use xlink:href="#DejaVuSans-67" x="840.478516"/>
      <use xlink:href="#DejaVuSans-20" x="903.955078"/>
      <use xlink:href="#DejaVuSans-3d" x="935.742188"/>
      <use xlink:href="#DejaVuSans-20" x="1019.53125"/>
      <use xlink:href="#DejaVuSans-30" x="1051.318359"/>
      <use xlink:href="#DejaVuSans-2e" x="1114.941406"/>
      <use xlink:href="#DejaVuSans-38" x="1146.728516"/>
      <use xlink:href="#DejaVuSans-36" x="1210.351562"/>
      <use xlink:href="#DejaVuSans-33" x="1273.974609"/>
     </g>
    </g>
    <g id="line2d_33">
     <path d="M 504.28875 368.224375 
L 516.28875 368.224375 
L 528.28875 368.224375 
" style="fill: none; stroke: #d62728; stroke-linecap: square"/>
    </g>
    <g id="text_20">
     <!-- Random Forest = 0.887 -->
     <g transform="translate(537.88875 372.424375) scale(0.12 -0.12)">
      <defs>
       <path id="DejaVuSans-6d" d="M 3328 2828 
Q 3544 3216 3844 3400 
Q 4144 3584 4550 3584 
Q 5097 3584 5394 3201 
Q 5691 2819 5691 2113 
L 5691 0 
L 5113 0 
L 5113 2094 
Q 5113 2597 4934 2840 
Q 4756 3084 4391 3084 
Q 3944 3084 3684 2787 
Q 3425 2491 3425 1978 
L 3425 0 
L 2847 0 
L 2847 2094 
Q 2847 2600 2669 2842 
Q 2491 3084 2119 3084 
Q 1678 3084 1418 2786 
Q 1159 2488 1159 1978 
L 1159 0 
L 581 0 
L 581 3500 
L 1159 3500 
L 1159 2956 
Q 1356 3278 1631 3431 
Q 1906 3584 2284 3584 
Q 2666 3584 2933 3390 
Q 3200 3197 3328 2828 
z
" transform="scale(0.015625)"/>
      </defs>
      <use xlink:href="#DejaVuSans-52"/>
      <use xlink:href="#DejaVuSans-61" x="67.232422"/>
      <use xlink:href="#DejaVuSans-6e" x="128.511719"/>
      <use xlink:href="#DejaVuSans-64" x="191.890625"/>
      <use xlink:href="#DejaVuSans-6f" x="255.367188"/>
      <use xlink:href="#DejaVuSans-6d" x="316.548828"/>
      <use xlink:href="#DejaVuSans-20" x="413.960938"/>
      <use xlink:href="#DejaVuSans-46" x="445.748047"/>
      <use xlink:href="#DejaVuSans-6f" x="499.642578"/>
      <use xlink:href="#DejaVuSans-72" x="560.824219"/>
      <use xlink:href="#DejaVuSans-65" x="599.6875"/>
      <use xlink:href="#DejaVuSans-73" x="661.210938"/>
      <use xlink:href="#DejaVuSans-74" x="713.310547"/>
      <use xlink:href="#DejaVuSans-20" x="752.519531"/>
      <use xlink:href="#DejaVuSans-3d" x="784.306641"/>
      <use xlink:href="#DejaVuSans-20" x="868.095703"/>
      <use xlink:href="#DejaVuSans-30" x="899.882812"/>
      <use xlink:href="#DejaVuSans-2e" x="963.505859"/>
      <use xlink:href="#DejaVuSans-38" x="995.292969"/>
      <use xlink:href="#DejaVuSans-38" x="1058.916016"/>
      <use xlink:href="#DejaVuSans-37" x="1122.539062"/>
     </g>
    </g>
   </g>
  </g>
 </g>
 <defs>
  <clipPath id="p2cba58a881">
   <rect x="52.04" y="32.64" width="657.16" height="353.08"/>
  </clipPath>
 </defs>
</svg>
